<svg version="1.1" xmlns="http://www.w3.org/2000/svg" viewBox="0 0 24 24" enable-background="new 0 0 24 24"><polygon fill="#78909C" points="12,7 12,3 2,3 2,21 22,21 22,7 "/><rect x="4" y="17" fill="#E6EE9C" width="2" height="2"/><rect x="4" y="13" fill="#E6EE9C" width="2" height="2"/><rect x="4" y="9" fill="#E6EE9C" width="2" height="2"/><rect x="4" y="5" fill="#E6EE9C" width="2" height="2"/><rect x="8" y="17" fill="#E6EE9C" width="2" height="2"/><rect x="8" y="13" fill="#E6EE9C" width="2" height="2"/><rect x="8" y="9" fill="#E6EE9C" width="2" height="2"/><rect x="8" y="5" fill="#E6EE9C" width="2" height="2"/><polygon fill="#E6EE9C" points="20,19 12,19 12,17 14,17 14,15 12,15 12,13 14,13 14,11 12,11 12,9 20,9 "/><rect x="16" y="11" fill="#78909C" width="2" height="2"/><rect x="16" y="15" fill="#78909C" width="2" height="2"/></svg>