<svg version="1.1" xmlns="http://www.w3.org/2000/svg" viewBox="0 0 24 24" enable-background="new 0 0 24 24"><path fill="#546E7A" d="M5,15H3v4c0,1.1,0.9,2,2,2h4v-2H5V15z"/><path fill="#546E7A" d="M5,5h4V3H5C3.9,3,3,3.9,3,5v4h2V5z"/><path fill="#546E7A" d="M19,3h-4v2h4v4h2V5C21,3.9,20.1,3,19,3z"/><path fill="#546E7A" d="M19,19h-4v2h4c1.1,0,2-0.9,2-2v-4h-2V19z"/><circle fill="#7E57C2" cx="12" cy="12" r="4"/><path fill="#FFFFFF" d="M12,14c-1.1,0-2-0.9-2-2c0-1.1,0.9-2,2-2c1.1,0,2,0.9,2,2C14,13.1,13.1,14,12,14z"/></svg>