<svg version="1.1" xmlns="http://www.w3.org/2000/svg" viewBox="0 0 24 24" enable-background="new 0 0 24 24"><path fill="#E53935" d="M19,4H5C3.89,4,3,4.9,3,6v12c0,1.1,0.89,2,2,2h14c1.1,0,2-0.9,2-2V6C21,4.9,20.1,4,19,4z"/><path fill="#ECEFF1" d="M11,11H9.5v-0.5h-2v3h2V13H11v1c0,0.55-0.45,1-1,1H7c-0.55,0-1-0.45-1-1v-4c0-0.55,0.45-1,1-1h3c0.55,0,1,0.45,1,1V11z"/><path fill="#ECEFF1" d="M18,11h-1.5v-0.5h-2v3h2V13H18v1c0,0.55-0.45,1-1,1h-3c-0.55,0-1-0.45-1-1v-4c0-0.55,0.45-1,1-1h3c0.55,0,1,0.45,1,1V11z"/></svg>