<svg version="1.1" xmlns="http://www.w3.org/2000/svg" viewBox="0 0 24 24" enable-background="new 0 0 24 24"><path fill="#D1C4E9" d="M12,2C6.48,2,2,6.48,2,12c0,5.52,4.48,10,10,10c5.52,0,10-4.48,10-10C22,6.48,17.52,2,12,2z M16.5,16H8c-1.66,0-3-1.34-3-3s1.34-3,3-3l0.14,0.01C8.58,8.28,10.13,7,12,7c2.21,0,4,1.79,4,4h0.5c1.38,0,2.5,1.12,2.5,2.5S17.88,16,16.5,16z"/><path fill="#82B1FF" d="M19,13.5c0,1.38-1.12,2.5-2.5,2.5H8c-1.66,0-3-1.34-3-3s1.34-3,3-3l0.14,0.01C8.58,8.28,10.13,7,12,7c2.21,0,4,1.79,4,4h0.5C17.88,11,19,12.12,19,13.5z"/></svg>