<svg version="1.1" xmlns="http://www.w3.org/2000/svg" viewBox="0 0 24 24" enable-background="new 0 0 24 24"><path fill="#4FC3F7" d="M15,3c-4.96,0-9,4.04-9,9s4.04,9,9,9s9-4.04,9-9S19.96,3,15,3z"/><path fill="#2196F3" d="M15,19c-3.86,0-7-3.141-7-7c0-3.86,3.14-7,7-7c3.859,0,7,3.14,7,7C22,15.859,18.859,19,15,19z"/><polygon fill="#CFD8DC" points="16,8 14,8 14,11 11,11 11,13 14,13 14,16 16,16 16,13 19,13 19,11 16,11 "/><path fill="#2196F3" d="M2,12c0-2.79,1.64-5.2,4.01-6.32V3.52C2.52,4.76,0,8.09,0,12s2.52,7.24,6.01,8.48v-2.16C3.64,17.2,2,14.79,2,12z"/></svg>