<svg version="1.1" xmlns="http://www.w3.org/2000/svg" viewBox="0 0 24 24" enable-background="new 0 0 24 24"><path fill="#37474F" d="M20,5v10.5c0,1.81-1.38,3.3-3.14,3.48C16.74,18.99,16.62,19,16.5,19l1.5,1.5V21H6v-0.5L7.5,19c-0.12,0-0.24-0.01-0.36-0.02C5.38,18.8,4,17.31,4,15.5V5c0-3.5,3.58-4,8-4S20,1.5,20,5z"/><path fill="#FFFFFF" d="M12,17c-1.1,0-2-0.9-2-2s0.9-2,2-2c1.1,0,2,0.9,2,2S13.1,17,12,17z"/><rect x="6" y="5" fill="#90CAF9" width="12" height="5"/><path fill="#DCE775" d="M18,20.5V21H6v-0.5L7.5,19c-0.12,0-0.24-0.01-0.36-0.02h9.72C16.74,18.99,16.62,19,16.5,19L18,20.5z"/></svg>