<svg version="1.1" xmlns="http://www.w3.org/2000/svg" viewBox="0 0 24 24" enable-background="new 0 0 24 24"><path fill="#CFD8DC" d="M21.687,6.948L12,13L2.31,6.946C2.118,7.253,2,7.611,2,8v10c0,1.1,0.9,2,2,2h16c1.1,0,2-0.9,2-2L21.99,8C21.99,7.611,21.876,7.254,21.687,6.948z"/><path fill="#90A4AE" d="M21.687,6.948C21.525,6.687,21.313,6.461,21.05,6.3L12,1L2.95,6.3C2.688,6.46,2.473,6.686,2.31,6.946L12,13L21.687,6.948z"/><polygon fill="#546E7A" points="12,13 3.74,7.84 12,3 20.26,7.84 "/><path fill="none" d="M0,0h24v24H0V0z"/></svg>