<svg version="1.1" xmlns="http://www.w3.org/2000/svg" viewBox="0 0 24 24" enable-background="new 0 0 24 24"><path fill="#558B2F" d="M21,13.72V19c0,0.55-0.45,1-1,1h-1c-0.55,0-1-0.45-1-1v-1H6v1c0,0.55-0.45,1-1,1H4c-0.55,0-1-0.45-1-1v-5.28H21z"/><path fill="#AED581" d="M21,11v2.72H3V11l2.08-5.99C5.29,4.42,5.84,4,6.5,4h11c0.66,0,1.221,0.42,1.42,1.01L21,11z"/><circle fill="#FFFFFF" cx="6.5" cy="13.5" r="1.5"/><circle fill="#FFFFFF" cx="17.5" cy="13.5" r="1.5"/><polygon fill="#66BB6A" points="5,10 6.5,5.5 17.5,5.5 19,10 "/><path fill="none" d="M0,0h24v24H0V0z"/></svg>