<svg version="1.1" xmlns="http://www.w3.org/2000/svg" viewBox="0 0 24 24" enable-background="new 0 0 24 24"><path fill="none" d="M0,0h24v24H0V0z"/><path fill="#F44336" d="M10.5,13.5V18C9.12,18,8,19.12,8,20.5V22c0,0-2.958,0-4,0c-1.1,0-2-0.9-2-2s0-4,0-4h1.5C4.88,16,6,14.88,6,13.5H10.5z M20.5,11H19V7c0-1.1-0.9-2-2-2h-4V3.5C13,2.12,11.88,1,10.5,1v12.5H23C23,12.12,21.88,11,20.5,11z"/><path fill="#D32F2F" d="M10.5,13.5H6C6,12.12,4.88,11,3.5,11H2c0,0,0.01-3.208,0.01-4C2.01,5.9,2.9,5,4,5h4V3.5C8,2.12,9.12,1,10.5,1V13.5z M13,20.5V22c0,0,2.875,0,4,0c1.1,0,2-0.9,2-2v-4h1.5c1.38,0,2.5-1.12,2.5-2.5H10.5V18C11.88,18,13,19.12,13,20.5z"/></svg>