<svg version="1.1" xmlns="http://www.w3.org/2000/svg" viewBox="0 0 24 24" enable-background="new 0 0 24 24"><g><path fill="#00ACC1" d="M22.999,2.999v14c0,1.1-0.9,2-2,2h-14c-1.1,0-2-0.9-2-2v-14c0-1.1,0.9-2,2-2h14C22.099,0.999,22.999,1.899,22.999,2.999z"/><path fill="#0097A7" d="M2.999,4.999h-2v16c0,1.1,0.9,2,2,2h16v-2h-16V4.999z"/><path opacity="0.5" fill="#0097A7" d="M22.999,2.999v14c0,1.1-0.9,2-2,2h-7.01v-18h7.01C22.099,0.999,22.999,1.899,22.999,2.999z"/></g><path fill="#CFD8DC" d="M15,5h-2c-1.1,0-2,0.89-2,2v2c0,1.11,0.9,2,2,2h2v2h-4v2h4c1.1,0,2-0.89,2-2V7C17,5.89,16.1,5,15,5z M15,9h-2V7h2V9z"/></svg>