<svg version="1.1" xmlns="http://www.w3.org/2000/svg" viewBox="0 0 24 24" enable-background="new 0 0 24 24"><rect x="3" y="11" fill="#26C6DA" width="2" height="2"/><rect x="3" y="15" fill="#26C6DA" width="2" height="2"/><path fill="#26C6DA" d="M5,21v-2H3C3,20.1,3.89,21,5,21z"/><rect x="3" y="7" fill="#26C6DA" width="2" height="2"/><rect x="15" y="19" fill="#26C6DA" width="2" height="2"/><path fill="#0097A7" d="M19,3H9C7.89,3,7,3.9,7,5v10c0,1.1,0.89,2,2,2h10c1.1,0,2-0.9,2-2V5C21,3.9,20.1,3,19,3z M18.9,15h-10V5h10V15z"/><rect x="11" y="19" fill="#26C6DA" width="2" height="2"/><rect x="7" y="19" fill="#26C6DA" width="2" height="2"/></svg>