<svg version="1.1" xmlns="http://www.w3.org/2000/svg" viewBox="0 0 24 24" enable-background="new 0 0 24 24"><rect x="7" y="7" fill="#26C6DA" width="2" height="2"/><rect x="7" y="11" fill="#26C6DA" width="2" height="2"/><path fill="#26C6DA" d="M9,3C7.89,3,7,3.9,7,5h2V3z"/><rect x="11" y="15" fill="#26C6DA" width="2" height="2"/><path fill="#26C6DA" d="M19,3v2h2C21,3.9,20.1,3,19,3z"/><rect x="11" y="3" fill="#26C6DA" width="2" height="2"/><path fill="#26C6DA" d="M9,17v-2H7C7,16.1,7.89,17,9,17z"/><rect x="19" y="11" fill="#26C6DA" width="2" height="2"/><rect x="19" y="7" fill="#26C6DA" width="2" height="2"/><path fill="#26C6DA" d="M19,17c1.1,0,2-0.9,2-2h-2V17z"/><path fill="#0097A7" d="M5,7H3v12c0,1.1,0.89,2,2,2h12v-2H5V7z"/><rect x="15" y="3" fill="#26C6DA" width="2" height="2"/><rect x="15" y="15" fill="#26C6DA" width="2" height="2"/></svg>