<svg version="1.1" xmlns="http://www.w3.org/2000/svg" viewBox="0 0 24 24" enable-background="new 0 0 24 24"><path fill="#90A4AE" d="M7,19h14v-2H7V19z M7,13h14v-2H7V13z M7,5v2h14V5H7z"/><path fill="none" d="M0,0h24v24H0V0z"/><path fill="#607D8B" d="M4,10.5c-0.83,0-1.5,0.67-1.5,1.5s0.67,1.5,1.5,1.5s1.5-0.67,1.5-1.5S4.83,10.5,4,10.5z M4,4.5C3.17,4.5,2.5,5.17,2.5,6S3.17,7.5,4,7.5S5.5,6.83,5.5,6S4.83,4.5,4,4.5z M4,16.67c-0.74,0-1.33,0.6-1.33,1.33s0.6,1.33,1.33,1.33s1.33-0.6,1.33-1.33S4.74,16.67,4,16.67z"/></svg>