<svg version="1.1" xmlns="http://www.w3.org/2000/svg" viewBox="0 0 24 24" enable-background="new 0 0 24 24"><path fill="#B0BEC5" d="M20.938,10.999c-0.459-4.17-3.77-7.48-7.939-7.94v-2.06h-2v2.06c-4.17,0.46-7.48,3.77-7.939,7.94H0.999v2H3.06c0.459,4.17,3.77,7.48,7.939,7.939v2.061h2v-2.061c4.17-0.459,7.48-3.77,7.939-7.939h2.061v-2H20.938z M11.999,18.999c-3.87,0-7-3.131-7-7c0-3.87,3.13-7,7-7s7,3.13,7,7C18.999,15.868,15.869,18.999,11.999,18.999z"/><path fill="none" d="M0,0h24v24H0V0z"/><path fill="#9FA8DA" d="M3,4.27L4.27,3c0,0,16.699,16.773,16.73,16.73S19.73,21,19.73,21L3,4.27z"/></svg>