<svg version="1.1" xmlns="http://www.w3.org/2000/svg" viewBox="0 0 24 24" enable-background="new 0 0 24 24"><path fill="#FFD54F" d="M10,12c-1.1,0-2,0.9-2,2s0.9,2,2,2s2-0.9,2-2S11.1,12,10,12z"/><path fill="#FFCA28" d="M6,8c-1.1,0-2,0.9-2,2s0.9,2,2,2s2-0.9,2-2S7.1,8,6,8z"/><path fill="#FFCA28" d="M6,16c-1.1,0-2,0.9-2,2s0.9,2,2,2s2-0.9,2-2S7.1,16,6,16z"/><path fill="#FFD54F" d="M18,8c1.1,0,2-0.9,2-2s-0.9-2-2-2s-2,0.9-2,2S16.9,8,18,8z"/><path fill="#FFCA28" d="M14,16c-1.1,0-2,0.9-2,2s0.9,2,2,2s2-0.9,2-2S15.1,16,14,16z"/><path fill="#FFD54F" d="M18,12c-1.1,0-2,0.9-2,2s0.9,2,2,2s2-0.9,2-2S19.1,12,18,12z"/><path fill="#FFCA28" d="M14,8c-1.1,0-2,0.9-2,2s0.9,2,2,2s2-0.9,2-2S15.1,8,14,8z"/><path fill="#FFD54F" d="M10,4C8.9,4,8,4.9,8,6s0.9,2,2,2s2-0.9,2-2S11.1,4,10,4z"/></svg>