<svg version="1.1" xmlns="http://www.w3.org/2000/svg" viewBox="0 0 24 24" enable-background="new 0 0 24 24"><path fill="#90A4AE" d="M20,2H4C2.9,2,2,2.9,2,4v16c0,1.1,0.9,2,2,2h16c1.1,0,2-0.9,2-2V4C22,2.9,21.1,2,20,2z"/><rect x="4" y="16" fill="#BBDEFB" width="4" height="4"/><rect x="4" y="10" fill="#BBDEFB" width="4" height="4"/><rect x="4" y="4" fill="#BBDEFB" width="4" height="4"/><rect x="10" y="16" fill="#BBDEFB" width="4" height="4"/><rect x="10" y="10" fill="#BBDEFB" width="4" height="4"/><rect x="10" y="4" fill="#BBDEFB" width="4" height="4"/><rect x="16" y="16" fill="#BBDEFB" width="4" height="4"/><rect x="16" y="10" fill="#BBDEFB" width="4" height="4"/><rect x="16" y="4" fill="#BBDEFB" width="4" height="4"/></svg>