<svg version="1.1" xmlns="http://www.w3.org/2000/svg" viewBox="0 0 24 24" enable-background="new 0 0 24 24"><g id="Capa_1"><path fill="#B0BEC5" d="M5.996,10.997h-2v-4h-2v10h2v-4h2v4h2v-10h-2V10.997z M12.996,6.997h-4v10h4c1.1,0,2-0.9,2-2v-6C14.996,7.897,14.096,6.997,12.996,6.997z M12.996,14.997h-2v-6h2V14.997z M21.996,10.997v-2c0-1.1-0.9-2-2-2h-4v10h2v-4h1l1,4h2l-1.189-4.17C21.506,12.517,21.996,11.817,21.996,10.997z M19.996,10.997h-2v-2h2V10.997z"/><path fill="none" d="M0,0h24v24H0V0z M0,0h24v24H0V0z"/></g><g id="Capa_2"><polygon fill="#9FA8DA" points="1.984,3.531 20.938,22.484 22.219,21.219 3.234,2.25 	"/></g></svg>