<svg version="1.1" xmlns="http://www.w3.org/2000/svg" viewBox="0 0 24 24" enable-background="new 0 0 24 24"><path fill="#4FC3F7" d="M12.04,2H12C6.48,2,2,6.48,2,12c0,5.52,4.48,10,10,10h0.04c5.5-0.02,9.96-4.49,9.96-10S17.54,2.02,12.04,2zM12.04,20H12c-4.41,0-8-3.59-8-8s3.59-8,8-8h0.04C16.43,4.02,20,7.6,20,12C20,16.4,16.43,19.98,12.04,20z"/><path fill="none" d="M0,0h24v24H0V0z"/><path opacity="0.3" fill="#2196F3" d="M22,12c0,5.51-4.46,9.98-9.96,10v-2c4.39-0.02,7.96-3.6,7.96-8c0-4.4-3.57-7.98-7.96-8V2C17.54,2.02,22,6.49,22,12z"/><rect x="11" y="11" fill="#2196F3" width="2" height="6"/><rect x="11" y="7" fill="#2196F3" width="2" height="2"/></svg>