<svg version="1.1" xmlns="http://www.w3.org/2000/svg" viewBox="0 0 36 36" x="30" y="30">
<g x="30" y="30" data-iconmelon="Iconmelon:20c70f6ef8ccbfbdbf65f8b190fc10b1">
  <g>
	<circle fill="#40B7AE" cx="13.477" cy="13.695" r="13.477"></circle>
	<path opacity="0.2" d="M30.297,6.936L30.297,6.936L27.953,1.46L16.745,6.256l0.156,0.365l0,0l-0.156-0.365l-5.889,2.52
c-0.363,0.156-0.597,0.486-0.649,0.852c-0.122,0.187-0.185,0.404-0.181,0.625l-4.476,1.916c-0.557,0.238-0.84,0.825-0.631,1.312
c0.207,0.486,0.827,0.687,1.384,0.449l4.121-1.764l0.224,0.522L5.756,14.78c-0.557,0.238-0.839,0.825-0.631,1.312
c0.208,0.486,0.827,0.687,1.384,0.449l4.893-2.094l0.182,0.425l-4.139,1.772c-0.557,0.238-0.84,0.825-0.632,1.312
c0.209,0.486,0.828,0.687,1.385,0.449l4.14-1.772l0.224,0.522l-3.436,1.471c-0.557,0.238-0.839,0.824-0.631,1.311
s0.827,0.688,1.384,0.449l3.436-1.471l2.452-1.049l5.026-2.151l-2.427-5.672l0,0l2.427,5.672L32,10.917L30.297,6.936z"></path>
	<g>
	  <rect x="18.067" y="2.951" transform="matrix(0.9194 -0.3934 0.3934 0.9194 -1.236 10.1589)" fill="#E9437F" width="12.191" height="10.287"></rect>
	  <path fill="#FFFFFF" d="M11.254,9.216l-0.026-0.061l-5.888,2.52C4.783,11.913,4.5,12.5,4.709,12.986
c0.208,0.486,0.827,0.687,1.384,0.449l4.121-1.764l0.224,0.522l-4.893,2.094c-0.557,0.238-0.839,0.825-0.631,1.312
c0.208,0.486,0.827,0.687,1.385,0.449l4.892-2.094l0.183,0.425l-4.141,1.771c-0.556,0.238-0.838,0.825-0.631,1.312
c0.208,0.485,0.828,0.687,1.385,0.448l4.14-1.771l0.224,0.522l-3.436,1.47c-0.557,0.238-0.839,0.825-0.631,1.312
s0.827,0.688,1.384,0.449l3.436-1.471l2.453-1.05l5.026-2.151l-3.617-8.449L11.254,9.216z"></path>
	  <g opacity="0.3">
		<path d="M16.689,6.128l1.465,3.42c-0.486-1.135,0.04-2.449,1.175-2.934c1.136-0.486,2.449,0.041,2.935,1.175
	s-0.041,2.449-1.176,2.934l9.153-3.917l-2.343-5.475L16.689,6.128z"></path>
		<circle cx="20.209" cy="8.669" r="2.235"></circle>
	  </g>
	  <g>
		<path fill="#E9437F" d="M16.534,5.764l1.464,3.42c-0.485-1.135,0.041-2.448,1.175-2.934c1.136-0.486,2.449,0.041,2.935,1.175
	c0.486,1.135-0.04,2.449-1.176,2.934l9.154-3.917l-2.344-5.476L16.534,5.764z"></path>
		<circle fill="#E9437F" cx="20.053" cy="8.305" r="2.235"></circle>
	  </g>
	  <circle fill="#FFFFFF" cx="19.122" cy="6.937" r="0.564"></circle>
	  <path opacity="0.1" d="M10.518,8.697c-0.58,0.249-0.858,0.901-0.62,1.458s0.902,0.806,1.482,0.558l2.357-1.009
c0.278,0.997,1.012,1.85,2.078,2.251c1.094,0.411,2.283,0.251,3.229-0.326L17.63,8.325l-0.104-0.243l-0.862-2.015L10.518,8.697z"></path>
	  <path fill="#FFFFFF" d="M10.646,8.284c-0.558,0.238-0.815,0.883-0.577,1.439c0.238,0.557,0.883,0.815,1.439,0.577l2.258-0.967
c0.283,0.995,1.004,1.854,2.038,2.268c1.062,0.425,2.207,0.284,3.109-0.275L17.5,8.022l-0.104-0.243l-0.862-2.015L10.646,8.284z"></path>
	</g>
	<path fill="#3C3C3B" d="M16.693,19.562c0,0-0.451-0.598-0.282-0.986c0.172-0.4,0.755-0.2,0.605,0.238
c0.228-0.406,0.764-0.123,0.591,0.278C17.438,19.482,16.693,19.562,16.693,19.562z"></path>
	<g>
	  <path fill="#3C3C3B" d="M15.378,18.688l-0.024-0.016c-0.087-0.051-0.191-0.164-0.23-0.257l-0.053-0.122
c-0.086-0.199-0.351-0.277-0.59-0.174c-0.242,0.104-0.365,0.349-0.28,0.547c0,0.002,0.055,0.123,0.055,0.123
c0.038,0.093,0.052,0.248,0.027,0.346l-0.007,0.029c-0.022,0.097,0.033,0.145,0.125,0.104l0.968-0.418
C15.462,18.811,15.465,18.736,15.378,18.688z"></path>
	  <path fill="#3C3C3B" d="M14.979,19.275c0.108-0.047,0.171-0.148,0.152-0.236l-0.429,0.186
C14.754,19.299,14.871,19.322,14.979,19.275z"></path>
	</g>
	<path fill="#3C3C3B" d="M16.409,15.778h-0.093c-0.005,0-0.011-0.001-0.014-0.001c-0.007-0.016-0.012-0.029-0.019-0.044
c0.002-0.004,0.006-0.008,0.009-0.012l0.065-0.065c0.031-0.031,0.031-0.082,0-0.113l-0.112-0.112c-0.03-0.03-0.082-0.03-0.111,0
l-0.065,0.065c-0.003,0.003-0.008,0.007-0.012,0.009c-0.014-0.007-0.029-0.012-0.045-0.017c0-0.004-0.001-0.009-0.001-0.016v-0.091
c0-0.044-0.034-0.081-0.078-0.081h-0.158c-0.045,0-0.08,0.036-0.08,0.081v0.091c0,0.006,0,0.011-0.001,0.016
c-0.016,0.006-0.03,0.012-0.044,0.017c-0.002-0.001-0.008-0.005-0.011-0.009l-0.065-0.065c-0.031-0.031-0.082-0.031-0.111,0
l-0.113,0.112c-0.031,0.031-0.031,0.082,0,0.113l0.066,0.065c0.004,0.003,0.006,0.007,0.01,0.012
c-0.007,0.015-0.013,0.028-0.019,0.044c-0.005,0-0.01,0.001-0.015,0.001h-0.092c-0.043,0-0.08,0.036-0.08,0.079v0.159
c0,0.043,0.035,0.08,0.08,0.08h0.092c0.005,0,0.01,0,0.015,0.001c0.006,0.015,0.012,0.029,0.019,0.044
c-0.003,0.003-0.006,0.007-0.01,0.01l-0.066,0.066c-0.031,0.029-0.031,0.081,0,0.112l0.113,0.112c0.031,0.031,0.08,0.031,0.111,0
l0.065-0.065c0.003-0.004,0.009-0.007,0.011-0.009c0.015,0.007,0.03,0.012,0.044,0.017c0.001,0.005,0.001,0.01,0.001,0.015v0.093
c0,0.043,0.035,0.08,0.08,0.08h0.158c0.044,0,0.078-0.036,0.078-0.08V16.4c0-0.005,0.001-0.01,0.001-0.015
c0.016-0.005,0.031-0.011,0.045-0.017c0.004,0.001,0.007,0.005,0.012,0.009l0.065,0.065c0.03,0.031,0.081,0.031,0.111,0
l0.112-0.112c0.031-0.031,0.031-0.083,0-0.112l-0.065-0.066c-0.003-0.003-0.007-0.007-0.009-0.01
c0.007-0.016,0.012-0.029,0.019-0.044c0.003-0.001,0.009-0.001,0.014-0.001h0.093c0.044,0,0.08-0.037,0.08-0.08v-0.159
C16.489,15.814,16.453,15.778,16.409,15.778z M15.854,16.176c-0.131,0-0.236-0.106-0.236-0.238c0-0.131,0.105-0.238,0.236-0.238
c0.133,0,0.239,0.107,0.239,0.238C16.093,16.07,15.986,16.176,15.854,16.176z"></path>
	<path fill="#3C3C3B" d="M14.457,20.433c-0.004-0.001-0.008-0.002-0.011-0.003s-0.009-0.001-0.013-0.002
c-0.333-0.088-0.678,0.115-0.764,0.447s0.346,1.201,0.346,1.201s0.804-0.547,0.891-0.878
C14.991,20.867,14.793,20.521,14.457,20.433z M14.205,21.355c-0.173-0.043-0.274-0.218-0.229-0.389
c0.044-0.172,0.218-0.273,0.39-0.229c0.17,0.044,0.273,0.219,0.229,0.389C14.55,21.299,14.375,21.4,14.205,21.355z"></path>
	<path fill="#3C3C3B" d="M15.449,23.479c0.101-0.002,0.153,0.036,0.205,0.082c0.044-0.003,0.1-0.027,0.134-0.045
c0.01-0.006,0.021-0.012,0.031-0.018c-0.018,0.052-0.044,0.093-0.083,0.123c-0.009,0.006-0.018,0.016-0.028,0.021l0,0
c0.055,0,0.102-0.026,0.147-0.04l0,0c-0.023,0.037-0.055,0.075-0.088,0.102c-0.015,0.012-0.027,0.021-0.041,0.033
c0.001,0.061-0.001,0.117-0.013,0.168c-0.065,0.295-0.237,0.494-0.509,0.578c-0.099,0.031-0.256,0.045-0.368,0.018
c-0.056-0.016-0.106-0.029-0.153-0.051c-0.026-0.01-0.051-0.023-0.073-0.039c-0.007-0.004-0.015-0.008-0.022-0.014
c0.025,0,0.055,0.008,0.083,0.004c0.025-0.004,0.051-0.004,0.073-0.008c0.06-0.014,0.112-0.031,0.156-0.057
c0.021-0.014,0.055-0.029,0.07-0.047c-0.029,0-0.056-0.006-0.077-0.014c-0.083-0.031-0.133-0.086-0.165-0.168
c0.025,0.002,0.1,0.01,0.117-0.006c-0.033,0-0.064-0.02-0.086-0.033c-0.067-0.043-0.123-0.115-0.122-0.225
c0.009,0.004,0.018,0.008,0.027,0.012c0.015,0.008,0.032,0.012,0.053,0.016c0.009,0.002,0.026,0.008,0.035,0.004c0,0,0,0-0.002,0
c-0.013-0.016-0.033-0.025-0.047-0.043c-0.043-0.055-0.084-0.139-0.058-0.236c0.006-0.025,0.017-0.049,0.027-0.068l0,0
c0.006,0.011,0.018,0.02,0.025,0.027c0.021,0.027,0.05,0.053,0.077,0.074c0.094,0.074,0.18,0.121,0.316,0.154
c0.035,0.01,0.076,0.016,0.117,0.016c-0.012-0.033-0.008-0.09,0.002-0.123c0.022-0.084,0.072-0.143,0.146-0.176
c0.018-0.008,0.036-0.014,0.057-0.018C15.428,23.481,15.438,23.48,15.449,23.479z"></path>
	<path fill="#3C3C3B" d="M15.333,13.115c-0.349,0-0.634,0.229-0.634,0.514c0,0.153,0.082,0.291,0.213,0.385
c0.013,0.038,0.007,0.079-0.025,0.133c-0.033,0.062-0.099,0.113-0.188,0.153c0.225-0.017,0.418-0.074,0.529-0.164
c0.033,0.004,0.068,0.008,0.104,0.008c0.352,0,0.634-0.23,0.634-0.515S15.685,13.115,15.333,13.115"></path>
	<path fill="#3C3C3B" d="M14.567,27.014h-0.092c-0.006,0-0.011,0-0.015,0c-0.006-0.018-0.012-0.031-0.019-0.045
c0.002-0.004,0.006-0.008,0.009-0.012l0.065-0.064c0.031-0.031,0.031-0.082,0-0.113l-0.111-0.111c-0.031-0.031-0.083-0.031-0.112,0
l-0.065,0.064c-0.003,0.004-0.008,0.008-0.011,0.01c-0.015-0.008-0.03-0.014-0.046-0.018c0-0.004,0-0.01,0-0.016v-0.092
c0-0.045-0.035-0.08-0.079-0.08h-0.158c-0.045,0-0.08,0.035-0.08,0.08v0.092c0,0.006,0,0.012-0.001,0.016
c-0.016,0.006-0.03,0.012-0.044,0.018c-0.003-0.002-0.008-0.006-0.011-0.01l-0.065-0.064c-0.031-0.031-0.081-0.031-0.111,0
l-0.113,0.111c-0.031,0.031-0.031,0.082,0,0.113l0.066,0.064c0.004,0.004,0.007,0.008,0.01,0.012
c-0.007,0.014-0.014,0.027-0.019,0.045c-0.004,0-0.009,0-0.015,0h-0.092c-0.043,0-0.079,0.035-0.079,0.08v0.158
c0,0.043,0.034,0.08,0.079,0.08h0.092c0.006,0,0.011,0,0.015,0c0.005,0.016,0.012,0.029,0.019,0.045
c-0.003,0.004-0.006,0.006-0.01,0.012l-0.066,0.064c-0.031,0.029-0.031,0.082,0,0.113l0.113,0.111c0.031,0.031,0.08,0.031,0.111,0
l0.065-0.064c0.003-0.006,0.008-0.008,0.011-0.01c0.015,0.008,0.03,0.012,0.044,0.018c0.001,0.004,0.001,0.01,0.001,0.014v0.094
c0,0.043,0.035,0.078,0.08,0.078h0.158c0.044,0,0.079-0.035,0.079-0.078v-0.094c0-0.004,0-0.01,0-0.014
c0.016-0.006,0.031-0.012,0.046-0.018c0.003,0.002,0.006,0.004,0.011,0.01l0.065,0.064c0.031,0.031,0.081,0.031,0.112,0
l0.111-0.111c0.031-0.031,0.031-0.084,0-0.113l-0.065-0.064c-0.003-0.006-0.007-0.008-0.009-0.012
c0.007-0.016,0.013-0.029,0.019-0.045c0.004,0,0.009,0,0.015,0h0.092c0.044,0,0.08-0.037,0.08-0.08v-0.158
C14.647,27.049,14.611,27.014,14.567,27.014z M14.012,27.412c-0.131,0-0.236-0.107-0.236-0.24c0-0.131,0.105-0.236,0.236-0.236
c0.133,0,0.238,0.105,0.238,0.236C14.25,27.305,14.145,27.412,14.012,27.412z"></path>
	<path fill="#3C3C3B" d="M28.309,30.783c-0.348,0-0.654,0.178-0.833,0.447c-0.178-0.568-0.626-1.02-1.194-1.201
c-0.043-0.85-0.743-1.525-1.603-1.525c-0.383,0-0.733,0.135-1.009,0.357c-0.106-0.049-0.225-0.076-0.349-0.076
c-0.125,0-0.243,0.029-0.35,0.078c-0.153-0.305-0.468-0.514-0.832-0.514c-0.507,0-0.917,0.402-0.931,0.906
c-0.036,0.012-0.07,0.027-0.105,0.041c-0.035-0.01-0.071-0.016-0.109-0.016c-0.091,0-0.175,0.031-0.243,0.08
c-0.188-0.107-0.407-0.17-0.641-0.17c-0.563,0-1.042,0.361-1.22,0.863c-0.17-0.053-0.35-0.084-0.537-0.084
c-0.682,0-1.275,0.379-1.583,0.936c-0.073-0.02-0.148-0.029-0.227-0.029c-0.5,0-0.905,0.404-0.905,0.904h13.669
C29.308,31.23,28.86,30.783,28.309,30.783z"></path>
	<path fill="#3C3C3B" d="M12.67,30.783c-0.348,0-0.654,0.178-0.833,0.447c-0.233-0.748-0.932-1.291-1.757-1.291
c-0.269,0-0.521,0.061-0.751,0.164c0.007-0.045,0.012-0.09,0.012-0.137c0-0.381-0.243-0.705-0.583-0.824
c-0.15-0.762-0.822-1.336-1.627-1.336c-0.572,0-1.076,0.291-1.375,0.73c-0.058-0.02-0.119-0.033-0.184-0.033
c-0.142,0-0.27,0.053-0.37,0.137c-0.243-0.182-0.543-0.291-0.87-0.291c-0.801,0-1.451,0.648-1.451,1.451
c0,0.061,0.006,0.121,0.013,0.18c-0.059-0.004-0.118-0.01-0.179-0.01c-0.682,0-1.275,0.379-1.584,0.936
c-0.072-0.02-0.147-0.029-0.226-0.029c-0.5,0-0.905,0.404-0.905,0.904h13.669C13.669,31.23,13.222,30.783,12.67,30.783z"></path>
  </g>
</g>
</svg>