<svg version="1.1" xmlns="http://www.w3.org/2000/svg" viewBox="0 0 24 24" enable-background="new 0 0 24 24"><g><path fill="#0D47A1" d="M20.002,3h-16c-1.1,0-1.99,0.9-1.99,2l-0.01,10c0,1.1,0.9,2,2,2h16c1.1,0,2-0.9,2-2V5C22.002,3.9,21.102,3,20.002,3z"/><path fill="#64B5F6" d="M11.002,6h2v2h-2V6z M11.002,9h2v2h-2V9z M8.002,6h2v2h-2V6z M8.002,9h2v2h-2V9z M7.002,11h-2V9h2V11zM7.002,8h-2V6h2V8z M16.002,15h-8v-2h8V15z M16.002,11h-2V9h2V11z M16.002,8h-2V6h2V8z M19.002,11h-2V9h2V11z M19.002,8h-2V6h2V8z"/></g><path fill="none" d="M0,0h24v24H0V0z"/><polygon fill="#64B5F6" points="12,23 16,19 8,19 "/></svg>