<svg version="1.1" xmlns="http://www.w3.org/2000/svg" viewBox="0 0 24 24" enable-background="new 0 0 24 24"><polygon fill="#546E7A" points="15,11 15,5 12,2 9,5 9,7 3,7 3,21 21,21 21,11 "/><rect x="5" y="17" fill="#BBDEFB" width="2" height="2"/><rect x="5" y="13" fill="#BBDEFB" width="2" height="2"/><rect x="5" y="9" fill="#BBDEFB" width="2" height="2"/><rect x="11" y="17" fill="#BBDEFB" width="2" height="2"/><rect x="11" y="13" fill="#BBDEFB" width="2" height="2"/><rect x="11" y="9" fill="#BBDEFB" width="2" height="2"/><rect x="11" y="5" fill="#BBDEFB" width="2" height="2"/><rect x="17" y="17" fill="#BBDEFB" width="2" height="2"/><rect x="17" y="13" fill="#BBDEFB" width="2" height="2"/><path fill="none" d="M0,0h24v24H0V0z"/></svg>