<svg version="1.1" xmlns="http://www.w3.org/2000/svg" viewBox="0 0 24 24" enable-background="new 0 0 24 24"><path fill="#D32F2F" d="M12,2C8.13,2,5,5.13,5,9c0,5.25,7,13,7,13s7-7.75,7-13C19,5.13,15.87,2,12,2z M11.997,18.878C9.884,16.188,7,11.876,7,9c0-2.757,2.243-5,5-5s5,2.243,5,5C17,11.852,14.081,16.212,11.997,18.878z"/><path fill="#F44336" d="M12,4C9.243,4,7,6.243,7,9c0,2.876,2.884,7.188,4.997,9.878C14.081,16.212,17,11.852,17,9C17,6.243,14.757,4,12,4z M12,11.5c-1.38,0-2.5-1.12-2.5-2.5s1.12-2.5,2.5-2.5s2.5,1.12,2.5,2.5S13.38,11.5,12,11.5z"/><path fill="none" d="M0,0h24v24H0V0z"/></svg>