<svg version="1.1" xmlns="http://www.w3.org/2000/svg" viewBox="0 0 24 24" enable-background="new 0 0 24 24"><path fill="#90A4AE" d="M20,4H4C2.89,4,2.01,4.89,2.01,6L2,18c0,1.109,0.89,2,2,2h16c1.109,0,2-0.891,2-2V6C22,4.89,21.109,4,20,4z"/><rect x="4" y="6" fill="#78909C" width="16" height="12"/><path fill="none" d="M0,0h24v24H0V0z"/><path fill="#FFD54F" d="M11,10v1h3c0.55,0,1,0.45,1,1v3c0,0.55-0.45,1-1,1h-1v1h-2v-1H9v-2h4v-1h-3c-0.55,0-1-0.45-1-1V9c0-0.55,0.45-1,1-1h1V7h2v1h2v2H11z"/><rect x="11" y="7" fill="#FFCA28" width="2" height="1"/><rect x="11" y="16" fill="#FFCA28" width="2" height="1"/></svg>