<svg version="1.1" xmlns="http://www.w3.org/2000/svg" viewBox="0 0 24 24" enable-background="new 0 0 24 24"><g><path fill="#42A5F5" d="M20.98,4.947v14c0,1.1-0.9,2-2,2h-14c-1.1,0-2-0.9-2-2v-14c0-1.1,0.9-2,2-2h14C20.08,2.947,20.98,3.847,20.98,4.947z"/><path opacity="0.5" fill="#1E88E5" enable-background="new    " d="M20.98,4.947v14c0,1.1-0.9,2-2,2h-7.009v-18h7.009C20.08,2.947,20.98,3.847,20.98,4.947z"/></g><path fill="#CFD8DC" d="M11,9v2h2c1.1,0,2,0.89,2,2v2c0,1.11-0.9,2-2,2H9v-2h4v-2H9V7h6v2H11z"/></svg>