<svg version="1.1" xmlns="http://www.w3.org/2000/svg" viewBox="0 0 24 24" enable-background="new 0 0 24 24"><g><path fill="#42A5F5" d="M21,5.019v14c0,1.1-0.9,2-2,2H5c-1.1,0-2-0.9-2-2v-14c0-1.1,0.9-2,2-2h14C20.1,3.019,21,3.919,21,5.019z"/><path opacity="0.5" fill="#1E88E5" enable-background="new    " d="M21,5.019v14c0,1.1-0.9,2-2,2h-7.008v-18H19C20.1,3.019,21,3.919,21,5.019z"/></g><path fill="none" d="M0,0h24v24H0V0z"/><path fill="#CFD8DC" d="M11,13v2h4v2H9v-4c0-1.11,0.9-2,2-2h2V9H9V7h4c1.1,0,2,0.89,2,2v2c0,1.11-0.9,2-2,2H11z"/></svg>