<svg version="1.1" xmlns="http://www.w3.org/2000/svg" viewBox="0 0 24 24" enable-background="new 0 0 24 24"><g><path fill="#42A5F5" d="M20.971,4.992v14c0,1.1-0.9,2-2,2h-14c-1.1,0-2-0.9-2-2v-14c0-1.1,0.9-2,2-2h14C20.07,2.992,20.971,3.892,20.971,4.992z"/><path opacity="0.5" fill="#1E88E5" enable-background="new    " d="M20.971,4.992v14c0,1.1-0.9,2-2,2h-7.009v-18h7.009C20.07,2.992,20.971,3.892,20.971,4.992z"/></g><path fill="#CFD8DC" d="M15,9V7h-4C9.9,7,9,7.89,9,9v6c0,1.11,0.9,2,2,2h2c1.1,0,2-0.89,2-2v-2c0-1.11-0.9-2-2-2h-2V9H15z M13,13v2h-2v-2H13z"/></svg>