<svg version="1.1" xmlns="http://www.w3.org/2000/svg" viewBox="0 0 24 24" enable-background="new 0 0 24 24"><g><path fill="#4DD0E1" d="M22.005,4.015v12c0,1.1-0.9,2-2,2h-14l-4,4l0.01-11v-7c0-1.1,0.891-2,1.99-2h16C21.104,2.015,22.005,2.915,22.005,4.015z"/><path opacity="0.3" fill="#26C6DA" enable-background="new    " d="M22.005,4.015v7H2.015v-7c0-1.1,0.891-2,1.99-2h16C21.104,2.015,22.005,2.915,22.005,4.015z"/><g><polygon fill="#43A047" points="19,14.001 5,14.001 8.5,9.5 11,12.511 14.5,8.001 		"/><polygon fill="#66BB6A" points="5,14.001 8.5,9.5 12.235,14.001 		"/></g></g><path fill="none" d="M0,0h24v24H0V0z"/></svg>