<svg version="1.1" xmlns="http://www.w3.org/2000/svg" viewBox="0 0 24 24" enable-background="new 0 0 24 24"><g id="Capa_1_1_"><path fill="none" d="M0,0h24v24H0V0z"/><path fill="#E57373" d="M24,5v14c0,1.1-0.9,2-2,2H7.07c-0.69,0-1.3-0.359-1.66-0.891L0,12l5.41-8.12C5.77,3.35,6.31,3,7,3h15C23.1,3,24,3.9,24,5z"/><circle fill="#FFFFFF" cx="9" cy="12" r="1.5"/><circle fill="#FFFFFF" cx="14" cy="12" r="1.5"/><circle fill="#FFFFFF" cx="19" cy="12" r="1.5"/></g><g id="Capa_2"><path fill="#EF5350" d="M8.984,20.984L7.07,21c-0.69,0-1.3-0.359-1.66-0.891L0,12l5.41-8.12C5.77,3.35,6.31,3,7,3l2.016,0.016L3.25,12L8.984,20.984z"/></g></svg>