<svg version="1.1" xmlns="http://www.w3.org/2000/svg" viewBox="0 0 24 24" enable-background="new 0 0 24 24"><path fill="none" d="M0,0v24h24V0H0z M18,14.5c0-0.83,0.67-1.5,1.5-1.5s1.5,0.67,1.5,1.5V16h-3V14.5z M0,0v24h24V0H0z M18,14.5c0-0.83,0.67-1.5,1.5-1.5s1.5,0.67,1.5,1.5V16h-3V14.5z"/><path fill="#90A4AE" d="M19.5,10c0.17,0,0.33,0.03,0.5,0.05V1L1,20h13v-3c0-0.891,0.391-1.68,1-2.23V14.5C15,12.02,17.02,10,19.5,10z"/><path fill="#FFA726" d="M22.12,16.01H22.1C22.07,16,22.03,16,22,16v-1.5c0-1.38-1.12-2.5-2.5-2.5S17,13.12,17,14.5V16c-0.03,0-0.07,0-0.1,0.01C16.4,16.06,16,16.48,16,17v4c0,0.55,0.45,1,1,1h5c0.55,0,1-0.45,1-1v-4C23,16.49,22.61,16.07,22.12,16.01zM18,14.5c0-0.83,0.67-1.5,1.5-1.5s1.5,0.67,1.5,1.5V16h-3V14.5z"/><path fill="#FFCC80" d="M22,16v-1.5c0-1.38-1.12-2.5-2.5-2.5S17,13.12,17,14.5V16c-0.03,0-0.07,0-0.1,0.01H22.1C22.07,16,22.03,16,22,16z M21,16h-3v-1.5c0-0.83,0.67-1.5,1.5-1.5s1.5,0.67,1.5,1.5V16z"/></svg>