<svg version="1.1" xmlns="http://www.w3.org/2000/svg" viewBox="0 0 24 24" enable-background="new 0 0 24 24"><rect x="3.958" y="4" fill="#B3E5FC" width="16.042" height="16.125"/><path fill="#546E7A" d="M4,4h7V2H4C2.9,2,2,2.9,2,4v7h2V4z"/><polygon fill="#66BB6A" points="10,13 6,18 18,18 15,14 12.971,16.71 "/><circle fill="#FFEE58" cx="15.5" cy="8.5" r="1.5"/><path fill="#78909C" d="M20,2h-7v2h7v7h2V4C22,2.9,21.1,2,20,2z"/><path fill="#546E7A" d="M20,20h-7v2h7c1.1,0,2-0.9,2-2v-7h-2V20z"/><path fill="#78909C" d="M4,13H2v7c0,1.1,0.9,2,2,2h7v-2H4V13z"/><path fill="none" d="M0,0h24v24H0V0z"/></svg>