<svg version="1.1" xmlns="http://www.w3.org/2000/svg" viewBox="0 0 24 24" enable-background="new 0 0 24 24"><path fill="#7986CB" d="M11,8c-1.66,0-3,1.34-3,3s1.34,3,3,3s3-1.34,3-3S12.66,8,11,8z M19,3H5C3.9,3,3,3.9,3,5v14c0,1.1,0.9,2,2,2h14c1.1,0,2-0.9,2-2V5C21,3.9,20.1,3,19,3z M17.59,19l-3.83-3.83C12.96,15.69,12.02,16,11,16c-2.76,0-5-2.24-5-5s2.24-5,5-5s5,2.24,5,5c0,1.02-0.31,1.96-0.83,2.75L19,17.59L17.59,19z M11,8c-1.66,0-3,1.34-3,3s1.34,3,3,3s3-1.34,3-3S12.66,8,11,8z M11,8c-1.66,0-3,1.34-3,3s1.34,3,3,3s3-1.34,3-3S12.66,8,11,8z"/><path fill="#E0E0E0" d="M15.17,13.75C15.69,12.96,16,12.02,16,11c0-2.76-2.24-5-5-5s-5,2.24-5,5s2.24,5,5,5c1.02,0,1.96-0.31,2.76-0.83L17.59,19L19,17.59L15.17,13.75z M11,14c-1.66,0-3-1.34-3-3s1.34-3,3-3s3,1.34,3,3S12.66,14,11,14z"/></svg>