<svg version="1.1" xmlns="http://www.w3.org/2000/svg" viewBox="0 0 24 24" enable-background="new 0 0 24 24"><path fill="#78909C" d="M16,11c1.66,0,2.99-1.34,2.99-3S17.66,5,16,5s-3,1.34-3,3S14.34,11,16,11z"/><path fill="#78909C" d="M15.995,13.017c-2.33,0-7,1.17-7,3.5v2.5h14v-2.5C22.995,14.187,18.325,13.017,15.995,13.017z"/><path fill="#90A4AE" d="M8,11c1.66,0,2.99-1.34,2.99-3S9.66,5,8,5S5,6.34,5,8S6.34,11,8,11z"/><path fill="#90A4AE" d="M8,13.017c-2.33,0-7,1.17-7,3.5v2.5h14v-2.5C15,14.187,10.33,13.017,8,13.017z"/></svg>