<svg version="1.1" xmlns="http://www.w3.org/2000/svg" viewBox="0 0 24 24" enable-background="new 0 0 24 24"><path fill="none" d="M14,1.88V4h8c0.97,0,1.78,0.7,1.96,1.62C23.99,5.74,24,5.87,24,6v10c0,1.1-0.9,2-2,2h-8v0.41h10V24H0V0h24v1.88H14z"/><path fill="#FFCA28" d="M2,6H0v5h0.01L0,20c0,1.1,0.9,2,2,2h18v-2H2V6z"/><path fill="#FFD54F" d="M24,6v10c0,1.1-0.9,2-2,2H6c-1.1,0-2-0.9-2-2L4.01,5.62V4C4.01,2.9,4.9,2,6,2h6l2,2h8c0.97,0,1.78,0.7,1.96,1.62C23.99,5.74,24,5.87,24,6z"/><path fill="#FFCA28" d="M24,6v10c0,1.1-0.9,2-2,2h-8V4h8c0.97,0,1.78,0.7,1.96,1.62C23.99,5.74,24,5.87,24,6z"/><polygon fill="#66BB6A" points="7,15 11.5,9 15,13.51 17.5,10.5 21,15 "/></svg>