<svg version="1.1" xmlns="http://www.w3.org/2000/svg" viewBox="0 0 24 24" enable-background="new 0 0 24 24"><rect x="5.094" y="2.875" fill="#FFB74D" width="7.906" height="10.031"/><rect x="8.438" y="3.469" opacity="0.3" fill="#FFA726" width="5.313" height="9.156"/><path fill="none" d="M0,0h24v24H0V0z"/><path fill="#BBDEFB" d="M18,2H6C4.9,2,4,2.9,4,4v16c0,1.1,0.9,2,2,2h12c1.1,0,2-0.9,2-2V4C20,2.9,19.1,2,18,2z M6,4h5v8l-2.5-1.5L6,12V4z M6,19l3-3.859l2.14,2.579l3-3.86L18,19H6z"/><g><polygon fill="#43A047" points="18.169,18.979 5.938,18.979 8.995,15.047 11.179,17.678 14.237,13.736 	"/><polygon fill="#66BB6A" points="5.938,18.979 8.995,15.047 12.258,18.979 	"/></g></svg>