<svg version="1.1" xmlns="http://www.w3.org/2000/svg" viewBox="0 0 24 24" enable-background="new 0 0 24 24"><g><path fill="#B0BEC5" d="M12,1.999c-5.52,0-10,4.48-10,10c0,5.52,4.48,10,10,10c5.519,0,10-4.48,10-10C21.999,6.479,17.519,1.999,12,1.999z M10,16.499v-9l6,4.5L10,16.499z"/><path opacity="0.3" fill="#90A4AE" enable-background="new    " d="M21.999,11.999c0,5.52-4.48,10-10,10v-20C17.519,1.999,21.999,6.479,21.999,11.999z"/><polygon fill="#29B6F6" points="15.999,11.999 10,16.499 10,7.499 	"/></g><path fill="none" d="M0,0h24v24H0V0z"/></svg>