<svg version="1.1" xmlns="http://www.w3.org/2000/svg" viewBox="0 0 24 24" enable-background="new 0 0 24 24"><path fill="#B0BEC5" d="M20.34,6.03C20.23,6.01,20.12,6,20,6h-4V4l-1.98-1.98L14,2h-4L8,4v2H4C3.88,6,3.77,6.01,3.66,6.03C2.72,6.19,2.01,7,2.01,8L2,13.939V19c0,1.109,0.89,2,2,2h16c1.109,0,2-0.891,2-2V8C22,7,21.279,6.19,20.34,6.03z M10,6V4h4v2H10z"/><path opacity="0.2" fill="#90A4AE" enable-background="new    " d="M22,8v5.939H2L2.01,8c0-1,0.71-1.81,1.65-1.97h16.68C21.279,6.19,22,7,22,8z"/><polygon fill="#00E676" points="12,19 7,14 10,14 10,10 14,10 14,14 17,14 "/><polygon fill="#B0BEC5" points="16,4 16,6 14,6 14,4 10,4 10,6 8,6 8,4 10,2 14,2 14.02,2.02 "/><polygon opacity="0.2" fill="#90A4AE" enable-background="new    " points="14.02,2.02 14.02,4 9.96,4 9.96,2.04 10,2 14,2 "/></svg>