<svg version="1.1" xmlns="http://www.w3.org/2000/svg" viewBox="0 0 24 24" enable-background="new 0 0 24 24"><path fill="#00838F" d="M18,20v2H4c-1.1,0-2-0.9-2-2V6h2v14H18z"/><path fill="#00838F" d="M22,4v12c0,1.1-0.9,2-2,2H8c-1.1,0-2-0.9-2-2V4c0-1.1,0.9-2,2-2h12C21.1,2,22,2.9,22,4z"/><path fill="#0097A7" d="M14,2v16H8c-1.1,0-2-0.9-2-2V4c0-1.1,0.9-2,2-2H14z"/><polygon fill="#FFFFFF" points="19,11 15,11 15,15 13,15 13,11 9,11 9,9 13,9 13,5 15,5 15,9 19,9 "/><path fill="#00838F" d="M18,22H4c-1.1,0-2-0.9-2-2V6h0.93l0.01,0.02l0.01,14.169c0,0,0.32,0.779,1.17,0.779c0.86,0,13.86,0,13.86,0L18,22z"/></svg>