<svg version="1.1" xmlns="http://www.w3.org/2000/svg" viewBox="0 0 24 24" enable-background="new 0 0 24 24"><g id="Capa_1_1_"><path fill="none" d="M0,0h24v24H0V0z"/><path fill="#78909C" d="M22,7v9h-9l3.62-3.62c-1.39-1.16-3.17-1.88-5.12-1.88c-3.55,0-6.55,2.311-7.6,5.5l-1.39-0.46l-0.97-0.32C2.92,11.03,6.85,8,11.5,8c2.65,0,5.05,0.99,6.9,2.6L22,7z"/></g><g id="Capa_2"><path fill="#78909C" d="M22,7v8.96l-0.02,0.021c0,0-11.465-14.871-19.34-0.418l-1.1-0.343C2.92,11.03,6.85,8,11.5,8c2.65,0,5.05,0.99,6.9,2.6L22,7z"/></g></svg>