<svg version="1.1" xmlns="http://www.w3.org/2000/svg" viewBox="0 0 24 24" enable-background="new 0 0 24 24"><path fill="none" d="M0,0v24h24V0H0z M12,20c-4.41,0-8-3.59-8-8s3.59-8,8-8s8,3.59,8,8S16.41,20,12,20z"/><rect x="7" y="11" fill="#E53935" width="10" height="2"/><path fill="#EF5350" d="M12,2h-0.03C6.46,2.02,2,6.49,2,12s4.46,9.98,9.97,10H12c5.52,0,10-4.48,10-10C22,6.48,17.52,2,12,2z M12,20h-0.03C7.57,19.98,4,16.4,4,12c0-4.4,3.57-7.98,7.97-8H12c4.41,0,8,3.59,8,8S16.41,20,12,20z"/><path opacity="0.3" fill="#D32F2F" d="M22,12c0,5.52-4.48,10-10,10h-0.03v-2H12c4.41,0,8-3.59,8-8s-3.59-8-8-8h-0.03V2H12C17.52,2,22,6.48,22,12z"/></svg>