<svg version="1.1" xmlns="http://www.w3.org/2000/svg" viewBox="0 0 24 24" enable-background="new 0 0 24 24"><polygon fill="#FFD54F" points="21,8.27 21,15.73 15.73,21 8.27,21 3,15.73 3,8.27 8.27,3 15.73,3 "/><polygon opacity="0.25" fill="#FFCA28" points="21,8.27 21,15.73 15.73,21 12,21 12,3 15.73,3 "/><path fill="#37474F" d="M12,17.3c-0.72,0-1.3-0.58-1.3-1.3s0.58-1.3,1.3-1.3c0.721,0,1.3,0.58,1.3,1.3S12.721,17.3,12,17.3z"/><rect x="11" y="7" fill="#37474F" width="2" height="6"/><path fill="none" d="M0,0h24v24H0V0z"/></svg>