<svg version="1.1" xmlns="http://www.w3.org/2000/svg" viewBox="0 0 24 24" enable-background="new 0 0 24 24"><path fill="#78909C" d="M17,1H7C5.9,1,5,1.9,5,3v18c0,1.1,0.9,2,2,2h10c1.1,0,2-0.9,2-2V3C19,1.9,18.1,1,17,1z"/><rect x="7" y="5" fill="#B2EBF2" width="10" height="14"/><path fill="none" d="M0,0h24v24H0V0z"/><path fill="#FFA726" d="M14,11v-1c0-1.11-0.9-2-2-2c-1.11,0-2,0.9-2,2v1c-0.55,0-1,0.45-1,1v3c0,0.55,0.45,1,1,1h4c0.55,0,1-0.45,1-1v-3C15,11.45,14.55,11,14,11z M10.8,11v-1c0-0.66,0.54-1.2,1.2-1.2s1.2,0.54,1.2,1.2v1H10.8z"/><path fill="#FFCC80" d="M14,10v1h-0.8v-1c0-0.66-0.54-1.2-1.2-1.2s-1.2,0.54-1.2,1.2v1H10v-1c0-1.1,0.89-2,2-2C13.1,8,14,8.89,14,10z"/></svg>