<svg version="1.1" xmlns="http://www.w3.org/2000/svg" viewBox="0 0 24 24" enable-background="new 0 0 24 24"><path fill="#29B6F6" d="M12,5c-3.87,0-7,3.13-7,7h2c0-2.76,2.24-5,5-5s5,2.24,5,5h2C19,8.13,15.87,5,12,5z"/><path fill="#78909C" d="M16.41,21L15,22.41l-3-3l-3,3L7.59,21L11,17.59v-3.3c-0.24-0.11-0.46-0.25-0.66-0.43C9.83,13.41,9.5,12.74,9.5,12c0-1.38,1.12-2.5,2.5-2.5s2.5,1.12,2.5,2.5c0,1.01-0.59,1.86-1.44,2.26c-0.01,0-0.01,0-0.01,0c-0.02,0.01-0.03,0.021-0.05,0.03v3.3L16.41,21z"/><path fill="#29B6F6" d="M12,1C5.93,1,1,5.93,1,12h2c0-4.97,4.03-9,9-9c4.971,0,9,4.03,9,9h2C23,5.93,18.07,1,12,1z"/><path fill="#90A4AE" d="M14.5,12c0,1.01-0.59,1.86-1.44,2.26c-0.01,0-0.01,0-0.01,0c-0.319,0.141-0.66,0.21-1.03,0.21c-0.64,0-1.22-0.229-1.68-0.609C9.83,13.41,9.5,12.74,9.5,12c0-1.38,1.12-2.5,2.5-2.5S14.5,10.62,14.5,12z"/></svg>