<svg version="1.1" xmlns="http://www.w3.org/2000/svg" viewBox="0 0 24 24" enable-background="new 0 0 24 24"><g><path fill="#1565C0" d="M12,13.027c1.66,0,2.99-1.34,2.99-3l0.01-6c0-1.66-1.34-3-3-3s-3,1.34-3,3v6C9,11.688,10.34,13.027,12,13.027z"/><path fill="#78909C" d="M19,10.027c0,3.42-2.721,6.24-6,6.72v3.28h-2v-3.28c-3.279-0.489-6-3.31-6-6.72h1.7c0,2.99,2.521,5.08,5.26,5.1H12c2.76,0,5.3-2.1,5.3-5.1H19z"/><path fill="#546E7A" d="M19,10.027c0,3.42-2.721,6.24-6,6.72v3.28h-1.04v-4.9H12c2.76,0,5.3-2.1,5.3-5.1H19z"/></g><rect x="6.931" y="22" fill="#455A64" width="2" height="2"/><rect x="11" y="22" fill="#546E7A" width="2" height="2"/><rect x="15" y="22" fill="#455A64" width="2" height="2"/><path fill="none" d="M0,0h24v24H0V0z"/></svg>