<svg version="1.1" xmlns="http://www.w3.org/2000/svg" viewBox="0 0 24 24" enable-background="new 0 0 24 24"><path fill="#90A4AE" d="M12,1C5.93,1,1,5.93,1,12c0,6.07,4.93,11,11,11c6.07,0,11-4.93,11-11C23,5.93,18.07,1,12,1z"/><path fill="#90A4AE" d="M12,21c-4.96,0-9-4.04-9-9s4.04-9,9-9s9,4.04,9,9S16.96,21,12,21z"/><path fill="none" d="M0,0h24v24H0V0z"/><circle fill="#37474F" cx="6.5" cy="11.5" r="1.5"/><path fill="#37474F" d="M15,6.5C15,5.67,14.33,5,13.5,5h-3C9.67,5,9,5.67,9,6.5S9.67,8,10.5,8h3C14.33,8,15,7.33,15,6.5z"/><circle fill="#37474F" cx="8.5" cy="16.5" r="1.5"/><circle fill="#37474F" cx="17.5" cy="11.5" r="1.5"/><circle fill="#37474F" cx="15.5" cy="16.5" r="1.5"/></svg>