<svg version="1.1" xmlns="http://www.w3.org/2000/svg" viewBox="0 0 24 24" enable-background="new 0 0 24 24"><path fill="#0288D1" d="M20.92,19c0,1.609-1.311,2.92-2.92,2.92s-2.92-1.311-2.92-2.92c0-0.22,0.029-0.439,0.08-0.65l-7.12-4.16C7.5,14.689,6.79,15,6,15c-1.66,0-3-1.34-3-3v-0.03C3.02,10.32,4.35,9,6,9c0.79,0,1.5,0.31,2.04,0.81l7.05-4.11C15.04,5.47,15,5.24,15,5c0-1.66,1.34-3,3-3s3,1.34,3,3s-1.34,3-3,3c-0.79,0-1.5-0.31-2.04-0.81L8.91,11.3C8.96,11.52,9,11.74,9,11.97V12c0,0.24-0.04,0.47-0.09,0.7l7.13,4.149c0.521-0.471,1.2-0.771,1.96-0.771C19.609,16.08,20.92,17.391,20.92,19z"/><circle fill="#42A5F5" cx="18.02" cy="5.003" r="3.006"/><circle fill="#42A5F5" cx="5.979" cy="11.982" r="3.006"/><circle fill="#42A5F5" cx="17.947" cy="18.951" r="3.006"/></svg>