<svg version="1.1" xmlns="http://www.w3.org/2000/svg" viewBox="0 0 24 24" enable-background="new 0 0 24 24"><path fill="#E53935" d="M23,10l-0.03,0.27l-0.34,1.25l-2.2,8.02C20.19,20.38,19.42,21,18.5,21h-13c-0.92,0-1.69-0.62-1.92-1.46l-2.2-8.02l-0.34-1.25C1.01,10.18,1,10.09,1,10c0-0.55,0.45-1,1-1h4.79L6.8,8.98l15.44,0.05C22.68,9.14,23,9.53,23,10z"/><path fill="#DCE775" d="M12,17c-1.1,0-2-0.9-2-2s0.9-2,2-2c1.1,0,2,0.9,2,2S13.1,17,12,17z"/><path fill="#DCE775" d="M17.21,9l-4.38-6.56C12.641,2.16,12.32,2.02,12,2.02s-0.64,0.14-0.83,0.43L6.8,8.98L6.79,9H4.58v0.02H19.52V9H17.21z M9,9l3-4.4L15,9H9z"/><path fill="none" d="M22.63,11.52H24V24H0V11.52h1.38l-0.34-1.25C1.01,10.18,1,10.09,1,10c0-0.55,0.45-1,1-1h4.79L6.8,8.98l15.44,0.05C22.68,9.14,23,9.53,23,10l-0.03,0.27L22.63,11.52z"/><rect fill="none" width="24" height="8.96"/><path fill="#D32F2F" d="M23,10l-0.03,0.27l-0.34,1.25H1.38l-0.34-1.25C1.01,10.18,1,10.09,1,10c0-0.55,0.45-1,1-1h4.79L6.8,8.98l15.44,0.05C22.68,9.14,23,9.53,23,10z"/></svg>