<svg version="1.1" xmlns="http://www.w3.org/2000/svg" viewBox="0 0 24 24" enable-background="new 0 0 24 24"><g><path fill="#039BE5" d="M19.943,3.998v16c0,1.1-0.9,2-2,2h-12c-1.1,0-2-0.9-2-2l0.021-12l5.979-6h8C19.043,1.998,19.943,2.898,19.943,3.998z"/><path opacity="0.5" fill="#0288D1" enable-background="new    " d="M19.943,3.998v16c0,1.1-0.9,2-2,2h-6v-20h6C19.043,1.998,19.943,2.898,19.943,3.998z"/></g><rect x="15" y="17" fill="#FFD54F" width="2" height="2"/><rect x="7" y="17" fill="#FFD54F" width="2" height="2"/><rect x="11" y="15" fill="#FFD54F" width="2" height="4"/><rect x="15" y="11" fill="#FFD54F" width="2" height="4"/><rect x="11" y="11" fill="#FFD54F" width="2" height="2"/><rect x="7" y="11" fill="#FFD54F" width="2" height="4"/><path fill="none" d="M0,0h24v24H0V0z"/></svg>