<svg version="1.1" xmlns="http://www.w3.org/2000/svg" viewBox="0 0 36 36">
<g data-iconmelon="Iconmelon:cf9e86cbfb7713a1ebee5168bbe803f5">
  <g>
	<g id="_x23_ffffffff">
	  <path fill="#3FB8AF" d="M14.236,26.392c-0.53-2.039-0.833-5.134-0.716-7.112c-2.607-0.077-5.164,0.449-6.09-2.97
c2.658-1.592,4.27,0.46,6.202,1.616c0.132-1.256,0.415-3.201,0.56-4.451c-2.722-0.998-5.639-2.261-7.097-4.932
C5.499,5.973,5.909,2.829,6.401,0c2.021,0.404,4.218,0.733,5.765,2.229c2.084,1.818,3.684,5.583,3.404,8.7
c0.319-2.091,2.013-4.47,3.591-5.278c1.648-0.922,3.599-0.783,5.424-0.89c-0.404,1.755-0.676,3.662-1.9,5.063
c-1.534,1.9-4.446,3.146-6.902,3.64c-1.218,4.223-1.093,8.59,0,12.807"></path>
	</g>
	<path fill="#3B3C3B" d="M13.456,30.383c0,0-2.221-0.154-2.767-1.292c-0.559-1.171,1.028-2.084,1.721-0.893
c-0.465-1.304,1.217-1.952,1.775-0.781C14.731,28.556,13.456,30.383,13.456,30.383z"></path>
	<g>
	  <g>
		<path fill="#3B3C3B" d="M16.938,28.471l-0.004-0.091c-0.015-0.321,0.116-0.796,0.296-1.062l0.238-0.352
	c0.388-0.568,0.142-1.414-0.547-1.88c-0.691-0.473-1.561-0.384-1.948,0.185c-0.004,0.004-0.238,0.357-0.238,0.357
	c-0.181,0.263-0.575,0.565-0.875,0.666l-0.093,0.029c-0.298,0.106-0.333,0.34-0.063,0.516l2.78,1.885
	C16.75,28.905,16.953,28.787,16.938,28.471z"></path>
		<path fill="#3B3C3B" d="M14.674,28.408c0.314,0.209,0.689,0.203,0.896,0.002l-1.233-0.833
	C14.225,27.841,14.362,28.196,14.674,28.408z"></path>
	  </g>
	</g>
	<path fill="#3B3C3B" d="M12.391,31.798c-0.325,0.006-0.495-0.115-0.661-0.266c-0.141,0.01-0.321,0.091-0.43,0.146
c-0.034,0.019-0.066,0.039-0.104,0.057c0.059-0.166,0.145-0.298,0.271-0.396c0.028-0.021,0.056-0.053,0.091-0.064c0,0,0,0,0-0.003
c-0.18,0.003-0.33,0.084-0.477,0.13l0,0c0.076-0.12,0.178-0.24,0.285-0.327c0.045-0.037,0.086-0.07,0.132-0.107
c-0.002-0.192,0.002-0.378,0.041-0.541c0.209-0.949,0.764-1.593,1.642-1.868c0.317-0.103,0.825-0.141,1.186-0.053
c0.18,0.045,0.343,0.096,0.498,0.161c0.083,0.036,0.16,0.078,0.233,0.125c0.025,0.015,0.051,0.03,0.074,0.047
c-0.083-0.003-0.176-0.026-0.266-0.01c-0.083,0.012-0.163,0.01-0.239,0.024c-0.19,0.042-0.36,0.098-0.504,0.181
c-0.07,0.044-0.176,0.092-0.225,0.151c0.095-0.002,0.178,0.021,0.249,0.046c0.269,0.097,0.426,0.273,0.53,0.542
c-0.082-0.008-0.322-0.033-0.375,0.015c0.104,0.005,0.206,0.065,0.277,0.111c0.217,0.138,0.396,0.368,0.393,0.724
c-0.029-0.013-0.057-0.027-0.086-0.041c-0.051-0.022-0.11-0.038-0.174-0.051c-0.028-0.005-0.083-0.021-0.113-0.01
c0,0,0.002,0,0.005,0c0.04,0.051,0.108,0.084,0.152,0.135c0.14,0.178,0.271,0.447,0.187,0.767c-0.02,0.083-0.054,0.154-0.087,0.221
c0,0-0.002,0-0.002-0.003c-0.018-0.033-0.055-0.06-0.079-0.089c-0.069-0.088-0.16-0.167-0.249-0.238
c-0.304-0.241-0.582-0.39-1.025-0.497c-0.11-0.028-0.241-0.052-0.376-0.052c0.039,0.109,0.026,0.292-0.002,0.399
c-0.077,0.269-0.236,0.461-0.475,0.567c-0.056,0.023-0.119,0.042-0.185,0.057C12.46,31.789,12.427,31.791,12.391,31.798z"></path>
	<path fill="#3B3C3B" d="M16.101,26.797c-1.006,0-1.828,0.662-1.828,1.482c0,0.44,0.239,0.835,0.614,1.107
c0.039,0.111,0.021,0.228-0.071,0.385c-0.096,0.175-0.284,0.323-0.543,0.44c0.65-0.047,1.207-0.213,1.526-0.474
c0.096,0.012,0.197,0.023,0.301,0.023c1.01,0,1.825-0.663,1.825-1.482C17.926,27.459,17.111,26.797,16.101,26.797"></path>
	<path fill="#3B3C3B" d="M9.913,28.865c0,0-1.462-1.679-1.043-2.868c0.433-1.224,2.201-0.748,1.848,0.585
c0.593-1.251,2.241-0.521,1.808,0.702C12.105,28.476,9.913,28.865,9.913,28.865z"></path>
	<path fill="#3B3C3B" d="M10.549,30.617c0.711-0.71,0.824-1.76,0.244-2.341c-0.311-0.311-0.759-0.42-1.217-0.349
c-0.106-0.051-0.175-0.146-0.222-0.322c-0.056-0.19-0.028-0.429,0.073-0.695C9,27.403,8.724,27.914,8.683,28.325
c-0.077,0.059-0.156,0.123-0.229,0.195c-0.714,0.716-0.822,1.76-0.242,2.34C8.791,31.439,9.835,31.332,10.549,30.617"></path>
	<path fill="#3B3C3B" d="M5.516,31.311l0.203-0.204c0.013-0.012,0.025-0.019,0.035-0.026c0.048,0.023,0.091,0.038,0.138,0.055
c0.002,0.013,0.004,0.028,0.004,0.044l0.001,0.288c0,0.136,0.11,0.247,0.247,0.247h0.492c0.133-0.002,0.246-0.114,0.246-0.247
l-0.001-0.285c0.001-0.016,0.001-0.034,0.005-0.044C6.93,31.12,6.976,31.1,7.021,31.076c0.009,0.009,0.021,0.019,0.036,0.032
l0.201,0.2c0.097,0.098,0.253,0.099,0.349,0.004l0.348-0.348c0.099-0.099,0.096-0.254-0.001-0.352l-0.201-0.201
c-0.014-0.013-0.025-0.024-0.031-0.036c0.02-0.045,0.04-0.091,0.059-0.135c0.008-0.001,0.026-0.001,0.041-0.001l0.289-0.002
c0.135-0.002,0.244-0.111,0.243-0.244L8.356,29.5c0-0.136-0.111-0.247-0.247-0.247l-0.29,0.002
c-0.017,0.001-0.031-0.003-0.044-0.003c-0.019-0.047-0.033-0.089-0.056-0.138c0.009-0.009,0.016-0.023,0.026-0.033l0.204-0.204
c0.095-0.095,0.097-0.251,0.002-0.346l-0.349-0.349c-0.095-0.095-0.252-0.099-0.35-0.002l-0.204,0.205
c-0.01,0.01-0.021,0.02-0.033,0.025c-0.045-0.02-0.09-0.036-0.138-0.057c-0.002-0.011-0.003-0.026-0.002-0.045v-0.291
c0.003-0.132-0.108-0.242-0.245-0.244l-0.494,0.004c-0.136,0-0.245,0.108-0.243,0.243L5.892,28.31c0.002,0.018,0,0.034-0.001,0.041
c-0.048,0.018-0.094,0.041-0.135,0.061c-0.013-0.009-0.024-0.02-0.035-0.029l-0.204-0.205c-0.095-0.095-0.251-0.099-0.35,0
l-0.348,0.348c-0.095,0.097-0.094,0.253,0.001,0.348l0.205,0.205c0.011,0.01,0.02,0.023,0.03,0.033
c-0.023,0.046-0.042,0.094-0.061,0.137c-0.011,0.004-0.024,0.004-0.044,0.005l-0.285-0.001c-0.137,0-0.247,0.109-0.246,0.245
l0,0.492c0,0.137,0.111,0.248,0.244,0.244l0.289,0.003c0.017,0.001,0.031,0.001,0.043,0.003c0.021,0.049,0.037,0.093,0.056,0.138
c-0.005,0.012-0.015,0.021-0.027,0.034l-0.204,0.203c-0.096,0.097-0.094,0.257,0,0.352l0.349,0.348
C5.263,31.407,5.42,31.406,5.516,31.311z M5.862,29.219c0.288-0.287,0.753-0.286,1.044,0.004c0.288,0.287,0.29,0.755,0.001,1.042
c-0.288,0.288-0.756,0.287-1.043,0C5.574,29.974,5.572,29.509,5.862,29.219z"></path>
	<path fill="#3B3C3B" d="M19.026,26.213c0,0,1.679-1.463,2.869-1.044c1.223,0.433,0.746,2.2-0.586,1.848
c1.251,0.593,0.521,2.24-0.702,1.808C19.416,28.405,19.026,26.213,19.026,26.213z"></path>
	<path fill="#3B3C3B" d="M21.862,31.289c0.712-0.71,0.824-1.76,0.244-2.34c-0.312-0.312-0.76-0.421-1.218-0.35
c-0.106-0.051-0.176-0.146-0.223-0.321c-0.056-0.191-0.027-0.43,0.073-0.696c-0.427,0.494-0.702,1.004-0.744,1.415
c-0.076,0.059-0.155,0.123-0.229,0.196c-0.714,0.715-0.822,1.76-0.242,2.339C20.103,32.112,21.147,32.005,21.862,31.289"></path>
	<path fill="#3B3C3B" d="M15.889,30.679l0.203-0.203c0.013-0.013,0.025-0.019,0.034-0.027c0.049,0.023,0.092,0.038,0.138,0.056
c0.002,0.013,0.004,0.028,0.004,0.043l0.001,0.289c0,0.135,0.11,0.246,0.247,0.246h0.492c0.134-0.001,0.246-0.113,0.246-0.246
l-0.002-0.285c0.002-0.017,0.002-0.034,0.005-0.045c0.045-0.017,0.092-0.038,0.137-0.062c0.009,0.009,0.022,0.019,0.035,0.032
l0.201,0.201c0.098,0.098,0.254,0.099,0.35,0.004l0.348-0.348c0.099-0.099,0.096-0.254-0.001-0.352l-0.201-0.201
c-0.014-0.014-0.025-0.024-0.031-0.037c0.02-0.044,0.04-0.09,0.06-0.135c0.009-0.001,0.026-0.001,0.04-0.001l0.29-0.001
c0.135-0.003,0.244-0.112,0.243-0.244l0.002-0.494c0-0.136-0.11-0.247-0.246-0.247l-0.29,0.001
c-0.016,0.001-0.03-0.002-0.044-0.002c-0.019-0.047-0.033-0.089-0.057-0.139c0.01-0.009,0.016-0.023,0.026-0.033l0.204-0.203
c0.095-0.095,0.096-0.252,0.001-0.347l-0.348-0.348c-0.095-0.095-0.253-0.099-0.351-0.003l-0.203,0.205
c-0.01,0.01-0.021,0.02-0.033,0.025c-0.045-0.02-0.09-0.035-0.138-0.057c-0.003-0.011-0.003-0.025-0.003-0.044v-0.291
c0.004-0.132-0.107-0.243-0.244-0.244l-0.494,0.004c-0.137,0-0.245,0.108-0.243,0.242l-0.002,0.289
c0.002,0.018,0,0.033-0.001,0.041c-0.048,0.017-0.094,0.04-0.135,0.06c-0.014-0.008-0.024-0.02-0.035-0.029l-0.204-0.204
c-0.095-0.096-0.251-0.099-0.35,0l-0.348,0.348c-0.095,0.096-0.093,0.253,0.002,0.348l0.205,0.204
c0.011,0.01,0.02,0.023,0.03,0.033c-0.023,0.046-0.042,0.094-0.061,0.138c-0.011,0.003-0.024,0.003-0.044,0.005l-0.285-0.002
c-0.137,0-0.247,0.11-0.246,0.246l0,0.492c0,0.137,0.111,0.247,0.244,0.244l0.289,0.002c0.016,0.001,0.031,0.001,0.043,0.004
c0.02,0.048,0.037,0.093,0.056,0.137c-0.005,0.013-0.015,0.022-0.028,0.034l-0.203,0.204c-0.096,0.096-0.094,0.256,0,0.352
l0.348,0.348C15.636,30.776,15.793,30.775,15.889,30.679z M16.235,28.588c0.288-0.288,0.754-0.286,1.044,0.003
c0.287,0.288,0.289,0.755,0.001,1.042c-0.288,0.289-0.755,0.288-1.042,0C15.947,29.342,15.945,28.877,16.235,28.588z"></path>
	<path fill="#3B3C3B" d="M24.767,32c0,0-1.345-1.775-0.844-2.934c0.515-1.191,2.246-0.595,1.803,0.71
c0.677-1.206,2.271-0.365,1.756,0.825C26.981,31.762,24.767,32,24.767,32z"></path>
	<path fill="#3B3C3B" d="M19.507,24.079c-0.009-0.005-0.019-0.011-0.025-0.015c-0.007-0.005-0.019-0.009-0.025-0.013
c-0.752-0.423-1.714-0.151-2.134,0.597c-0.418,0.748,0.075,3.126,0.075,3.126s2.286-0.811,2.708-1.559
C20.524,25.47,20.263,24.506,19.507,24.079z M19.397,25.847c-0.217,0.384-0.704,0.52-1.088,0.303
c-0.387-0.215-0.522-0.7-0.305-1.087c0.214-0.387,0.699-0.522,1.086-0.305C19.474,24.975,19.61,25.462,19.397,25.847z"></path>
	<path fill="#3B3C3B" d="M17.162,29.262c0,0,0.153-2.222,1.291-2.767c1.17-0.56,2.082,1.027,0.893,1.72
c1.302-0.465,1.95,1.216,0.78,1.775C18.988,30.536,17.162,29.262,17.162,29.262z"></path>
	<g id="_x23_ffffffff_1_">
	  <path fill="#FF3D7F" d="M15.783,21.595c1.335-0.798,2.451-2.217,4.288-1.116c-0.641,2.363-2.34,2-4.142,2.053L15.783,21.595z"></path>
	</g>
  </g>
</g>
</svg>