<svg version="1.1" xmlns="http://www.w3.org/2000/svg" viewBox="0 0 24 24" enable-background="new 0 0 24 24"><rect x="4" y="17" fill="#BA68C8" width="10" height="2"/><rect x="4" y="9" fill="#4DB6AC" width="16" height="2"/><rect x="4" y="13" fill="#DCE775" width="16" height="2"/><rect x="4" y="5" fill="#4FC3F7" width="16" height="2"/><path fill="none" d="M0,0v24h24V0H0z M22.49,19.42H13.97V19H14v-2h-0.03v-2H20v-2h-6.03v-2H20V9h-6.03V7H20V5h-6.03V3.28h8.521V19.42z"/><rect x="13.97" y="17" opacity="0.2" fill="#546E7A" width="0.03" height="2"/><rect x="13.97" y="5" opacity="0.2" fill="#546E7A" width="6.03" height="2"/><rect x="13.97" y="9" opacity="0.2" fill="#546E7A" width="6.03" height="2"/><rect x="13.97" y="13" opacity="0.2" fill="#546E7A" width="6.03" height="2"/></svg>