<svg version="1.1" xmlns="http://www.w3.org/2000/svg" viewBox="0 0 24 24" enable-background="new 0 0 24 24"><g id="Capa_1_1_"><path fill="none" d="M0,0h24v24H0V0z"/><path fill="#D32F2F" d="M9,4.26v2.09C6.67,7.17,5,9.39,5,12c0,1.66,0.68,3.15,1.76,4.24L9,14v6H3l2.36-2.359C3.91,16.2,3,14.21,3,12C3,8.27,5.55,5.15,9,4.26z"/><rect x="11" y="15" fill="#B71C1C" width="2" height="2"/><path fill="#D32F2F" d="M18.641,6.36C20.09,7.8,21,9.79,21,12c0,3.73-2.55,6.85-6,7.74v-2.09c2.33-0.82,4-3.041,4-5.65c0-1.66-0.68-3.15-1.76-4.24L15,10V4h6L18.641,6.36z"/><rect x="11" y="7" fill="#B71C1C" width="2" height="6"/></g></svg>