<svg version="1.1" xmlns="http://www.w3.org/2000/svg" viewBox="0 0 24 24" enable-background="new 0 0 24 24"><g id="Capa_1_1_"><path fill="#43A047" d="M20,12c0,1.57-0.46,3.03-1.24,4.26L17.3,14.8c0.45-0.83,0.7-1.79,0.7-2.8c0-3.31-2.689-6-6-6v3L8.02,5.02c0,0-0.01-0.01-0.02-0.02l4-4v3C16.42,4,20,7.58,20,12z"/><path fill="#00ACC1" d="M12,23v-3c-4.42,0-8-3.58-8-8c0-1.57,0.46-3.03,1.24-4.26L6.7,9.2C6.25,10.03,6,10.99,6,12c0,3.311,2.69,6,6,6v-3l4,4L12,23z"/><path fill="none" d="M0,0h24v24H0V0z"/></g></svg>