<svg version="1.1" xmlns="http://www.w3.org/2000/svg" viewBox="0 0 24 24" enable-background="new 0 0 24 24"><rect x="1" y="7" fill="#C5CAE9" width="2" height="2"/><rect x="1" y="11" fill="#C5CAE9" width="2" height="2"/><path fill="#C5CAE9" d="M1,5h2V3C1.9,3,1,3.9,1,5z"/><rect x="9" y="19" fill="#C5CAE9" width="2" height="2"/><rect x="1" y="15" fill="#C5CAE9" width="2" height="2"/><path fill="#C5CAE9" d="M3,21v-2H1C1,20.1,1.9,21,3,21z"/><path fill="#0097A7" d="M21,3h-8v6h10V5C23,3.9,22.1,3,21,3z"/><rect x="21" y="15" fill="#C5CAE9" width="2" height="2"/><rect x="9" y="3" fill="#C5CAE9" width="2" height="2"/><rect x="5" y="19" fill="#C5CAE9" width="2" height="2"/><rect x="5" y="3" fill="#C5CAE9" width="2" height="2"/><path fill="#C5CAE9" d="M21,21c1.1,0,2-0.9,2-2h-2V21z"/><rect x="21" y="11" fill="#C5CAE9" width="2" height="2"/><rect x="13" y="19" fill="#C5CAE9" width="2" height="2"/><rect x="17" y="19" fill="#C5CAE9" width="2" height="2"/></svg>