<svg version="1.1" xmlns="http://www.w3.org/2000/svg" viewBox="0 0 24 24" enable-background="new 0 0 24 24"><g><path fill="#78909C" d="M16.984,1.01L6.984,1c-1.101,0-2,0.857-2,1.906v17.147c0,1.048,0.899,1.905,2,1.905h10c1.1,0,2-0.857,2-1.905V2.906C18.984,1.858,18.084,1.01,16.984,1.01z"/><rect x="6.984" y="4.811" fill="#BBDEFB" width="10" height="13.336"/></g><path fill="none" d="M0,0h24v24H0V0z"/><path fill="#29B6F6" d="M2,16v2c2.76,0,5,2.24,5,5h2C9,19.13,5.87,16,2,16z"/><path fill="#29B6F6" d="M2,20v3h3C5,21.34,3.66,20,2,20z"/><path fill="#29B6F6" d="M2,12v2c4.97,0,9,4.03,9,9h2C13,16.92,8.08,12,2,12z"/></svg>