<svg version="1.1" xmlns="http://www.w3.org/2000/svg" viewBox="0 0 24 24" enable-background="new 0 0 24 24"><path fill="#8E24AA" d="M19.51,3.08L3.08,19.51c0.09,0.34,0.27,0.65,0.51,0.9c0.25,0.24,0.56,0.42,0.9,0.51L20.93,4.49C20.74,3.8,20.2,3.26,19.51,3.08z"/><polygon fill="#BA68C8" points="11.88,3 3,11.88 3,14.71 14.71,3 "/><path fill="#8E24AA" d="M5,3C3.9,3,3,3.9,3,5v2l4-4H5z"/><path fill="#8E24AA" d="M19,21c0.55,0,1.05-0.22,1.41-0.59C20.779,20.05,21,19.55,21,19v-2l-4,4H19z"/><polygon fill="#BA68C8" points="9.29,21 12.12,21 21,12.12 21,9.29 "/></svg>