<svg version="1.1" xmlns="http://www.w3.org/2000/svg" viewBox="0 0 24 24" enable-background="new 0 0 24 24"><g id="Capa_1_1_"><path fill="none" d="M19,3v12h4V3H19z"/><path fill="#D32F2F" d="M17,5v10c0,0.55-0.221,1.05-0.58,1.41L9.83,23l-0.97-0.96l-0.09-0.09c-0.27-0.271-0.44-0.65-0.44-1.06l0.03-0.32L9.31,16H3c-0.99,0-1.82-0.73-1.97-1.689C1.01,14.21,1,14.109,1,14l0.01-0.08L1,13.91V12c0-0.26,0.05-0.5,0.14-0.73l3.02-7.05C4.46,3.5,5.17,3,6,3h9C16.1,3,17,3.9,17,5z"/><rect x="19" y="3" fill="#C62828" width="4" height="12"/></g></svg>