<svg version="1.1" xmlns="http://www.w3.org/2000/svg" viewBox="0 0 24 24" enable-background="new 0 0 24 24"><path fill="#78909C" d="M22.471,15.22l-1.201,0.4L20.1,16c-1.05-3.189-4.06-5.5-7.6-5.5c-1.96,0-3.73,0.72-5.12,1.88L11,16H2V7l3.6,3.6C7.45,8.99,9.85,8,12.5,8C17.15,8,21.08,11.03,22.471,15.22z"/><path fill="#78909C" d="M22.471,15.22l-1.201,0.4l-0.02-0.03c0,0-2.13-6.2-8.641-6.25C6.09,9.3,2,16,2,16V7l3.6,3.6C7.45,8.99,9.85,8,12.5,8C17.15,8,21.08,11.03,22.471,15.22z"/><polygon fill="#78909C" points="2,7 11,16 2,16 "/></svg>