<svg version="1.1" xmlns="http://www.w3.org/2000/svg" viewBox="0 0 24 24" enable-background="new 0 0 24 24"><rect x="4" y="11" fill="#546E7A" width="16" height="2"/><polygon fill="#78909C" points="13,5 13,1 11,1 11,5 8,5 12,9 16,5 "/><polygon fill="#78909C" points="12,15 11.97,15.03 8,19 11,19 11,23 13,23 13,19 16,19 "/><path fill="none" d="M0,0h24v24H0V0z"/><polygon fill="#78909C" points="11.97,1 11.97,8.97 8,5 11,5 11,1 "/><polygon fill="#78909C" points="11.97,15.03 11.97,23 11,23 11,19 8,19 "/><rect x="4" y="11" fill="#546E7A" width="16" height="1.01"/></svg>