<svg version="1.1" xmlns="http://www.w3.org/2000/svg" viewBox="0 0 24 24" enable-background="new 0 0 24 24"><g id="Capa_1_1_"><path fill="#039BE5" d="M7,9H3v6h4l5,5V4L7,9z M14,7.97v8.05c1.48-0.729,2.5-2.25,2.5-4.021C16.5,10.23,15.48,8.71,14,7.97zM14,3.23v2.06c2.891,0.86,5,3.54,5,6.71s-2.109,5.85-5,6.71v2.06c4.01-0.908,7-4.486,7-8.77C21,7.72,18.01,4.14,14,3.23z"/><path fill="none" d="M0,0h24v24H0V0z"/><polygon fill="#90A4AE" points="12,4 12,20 7,15 7,9 	"/></g><g id="Capa_2"><rect x="3" y="9" fill="#78909C" width="4" height="6"/></g></svg>