<svg version="1.1" xmlns="http://www.w3.org/2000/svg" viewBox="0 0 24 24" enable-background="new 0 0 24 24"><path fill="none" d="M12,3.06V4c3.641,0,6.67,2.59,7.359,6.04C21.95,10.22,24,12.36,24,15c0,2.76-2.24,5-5,5h-7v3.061h12V24H0V0h24v3.06H12z"/><path fill="#5C6BC0" d="M24,15c0,2.76-2.24,5-5,5H6c-3.31,0-6-2.689-6-6c0-3.09,2.34-5.64,5.35-5.96C6.6,5.64,9.11,4,12,4c3.641,0,6.67,2.59,7.359,6.04C21.95,10.22,24,12.36,24,15z"/><path opacity="0.1" fill="#9FA8DA" enable-background="new    " d="M24,15c0,2.76-2.24,5-5,5h-7V4c3.641,0,6.67,2.59,7.359,6.04C21.95,10.22,24,12.36,24,15z"/></svg>